Coordinates
version=1
nRows=16
nColumns=40
inDegrees=yes

Units are S.I. units (second, meters, Newtons, ...)
If the header above contains a line with 'inDegrees', this indicates whether rotational values are in degrees (yes) or radians (no).

endheader
time	pelvis_tilt	pelvis_list	pelvis_rotation	pelvis_tx	pelvis_ty	pelvis_tz	hip_flexion_r	hip_adduction_r	hip_rotation_r	knee_angle_r	knee_angle_r_beta	ankle_angle_r	subtalar_angle_r	mtp_angle_r	hip_flexion_l	hip_adduction_l	hip_rotation_l	knee_angle_l	knee_angle_l_beta	ankle_angle_l	subtalar_angle_l	mtp_angle_l	lumbar_extension	lumbar_bending	lumbar_rotation	arm_flex_r	arm_add_r	arm_rot_r	elbow_flex_r	pro_sup_r	wrist_flex_r	wrist_dev_r	arm_flex_l	arm_add_l	arm_rot_l	elbow_flex_l	pro_sup_l	wrist_flex_l	wrist_dev_l
      0.98500000	     -3.21669564	      3.15958086	      2.53189773	      0.62522638	      0.93372962	      0.21345307	     23.92318431	    -10.97152743	    -14.27019892	     67.69751521	      1.18154454	     -6.39193653	    -25.08854655	      0.00000000	      5.19614858	      5.31914939	    -12.19304747	      7.55290579	      0.13182307	      6.51030658	      3.09949999	      0.00000000	     -2.06626294	     -5.56834039	     -2.50132560	     44.32491966	    -15.85428187	     44.32491966	     75.16285776	     44.98506450	      0.00000000	      0.00000000	     44.32491966	    -15.85428187	     44.32491966	     75.16285776	     44.98506450	      0.00000000	      0.00000000
      0.99000000	     -3.19155638	      2.88197317	      2.68582592	      0.63145657	      0.93420820	      0.21319207	     24.49994206	    -10.49738762	    -14.32505593	     66.85936789	      1.16691611	     -5.69996201	    -24.73756322	      0.00000000	      4.53123402	      5.05256974	    -12.10542428	      7.13117208	      0.12446243	      6.77948162	      3.63000745	      0.00000000	     -2.13321562	     -5.24569444	     -2.54244375	     44.32553756	    -15.85298956	     44.32553756	     75.16237583	     44.98518707	      0.00000000	      0.00000000	     44.32553756	    -15.85298956	     44.32553756	     75.16237583	     44.98518707	      0.00000000	      0.00000000
      0.99500000	     -3.01613698	      2.62351022	      2.90651683	      0.63765463	      0.93488111	      0.21275616	     24.82790969	    -10.06909093	    -14.43723140	     65.85810124	      1.14944071	     -5.12112496	    -24.43659476	      0.00000000	      3.76838498	      4.80088084	    -12.03286191	      6.82894690	      0.11918761	      7.02448589	      4.04321673	      0.00000000	     -2.37087494	     -4.87186303	     -2.52954087	     44.32661868	    -15.85073032	     44.32661868	     75.16153500	     44.98539936	      0.00000000	      0.00000000	     44.32661868	    -15.85073032	     44.32661868	     75.16153500	     44.98539936	      0.00000000	      0.00000000
      1.00000000	     -3.01136579	      2.46107650	      3.12156167	      0.64383389	      0.93514043	      0.21239298	     25.37493094	     -9.75629237	    -14.49995496	     64.90037357	      1.13272520	     -4.60934644	    -24.25557870	      0.00000000	      3.19218981	      4.65507466	    -11.92655265	      6.53397772	      0.11403942	      7.27857582	      4.41478869	      0.00000000	     -2.41107153	     -4.64152081	     -2.53932009	     44.32735142	    -15.84920046	     44.32735142	     75.16096685	     44.98554169	      0.00000000	      0.00000000	     44.32735142	    -15.84920046	     44.32735142	     75.16096685	     44.98554169	      0.00000000	      0.00000000
      1.00500000	     -3.03219014	      2.30574784	      3.33907047	      0.65002876	      0.93526060	      0.21207251	     25.92368908	     -9.45029089	    -14.53543143	     63.88487630	      1.11500143	     -4.04700389	    -24.07302142	      0.00000000	      2.64752448	      4.50981511	    -11.79509493	      6.24316300	      0.10896375	      7.55008989	      4.78284648	      0.00000000	     -2.43358814	     -4.43774239	     -2.55323308	     44.32788923	    -15.84807832	     44.32788923	     75.16055077	     44.98564534	      0.00000000	      0.00000000	     44.32788923	    -15.84807832	     44.32788923	     75.16055077	     44.98564534	      0.00000000	      0.00000000
      1.01000000	     -2.77025349	      2.00591200	      3.62429282	      0.65616986	      0.93585043	      0.21152422	     26.03251014	     -9.00216430	    -14.71650019	     62.61551765	      1.09284695	     -3.62751192	    -23.82678347	      0.00000000	      1.83224231	      4.19859379	    -11.59022064	      5.99223598	      0.10458425	      7.80471463	      5.06956552	      0.00000000	     -2.78291954	     -3.97888078	     -2.54820438	     44.32958167	    -15.84455062	     44.32958167	     75.15924601	     44.98596737	      0.00000000	      0.00000000	     44.32958167	    -15.84455062	     44.32958167	     75.15924601	     44.98596737	      0.00000000	      0.00000000
      1.01500000	     -2.86048976	      2.13139146	      3.85090702	      0.66226322	      0.93560296	      0.21126606	     26.68386299	     -9.04841460	    -14.67450332	     61.62125322	      1.07549376	     -3.36158736	    -23.72865369	      0.00000000	      1.46007808	      4.34180215	    -11.53767477	      5.91634816	      0.10325976	      8.00836791	      5.20060520	      0.00000000	     -2.73516413	     -4.08969158	     -2.50892046	     44.32972693	    -15.84424818	     44.32972693	     75.15913443	     44.98599468	      0.00000000	      0.00000000	     44.32972693	    -15.84424818	     44.32972693	     75.15913443	     44.98599468	      0.00000000	      0.00000000
      1.02000000	     -2.67989374	      1.68454372	      4.11524736	      0.66848474	      0.93596780	      0.21076945	     26.79364088	     -8.39455860	    -14.79680064	     60.16059646	      1.05000049	     -2.74669991	    -23.39003312	      0.00000000	      0.67833571	      3.86916368	    -11.19271877	      5.53894432	      0.09667282	      8.35617282	      5.56359605	      0.00000000	     -2.98363123	     -3.50355544	     -2.59802711	     44.33128650	    -15.84100314	     44.33128650	     75.15793932	     44.98628513	      0.00000000	      0.00000000	     44.33128650	    -15.84100314	     44.33128650	     75.15793932	     44.98628513	      0.00000000	      0.00000000
      1.02500000	     -2.77826268	      1.86777938	      4.36136683	      0.67444232	      0.93551505	      0.21043910	     27.43865992	     -8.54707418	    -14.76003919	     59.13215469	      1.03205079	     -2.55927046	    -23.29024855	      0.00000000	      0.34791521	      4.07333515	    -11.18408671	      5.49286421	      0.09586857	      8.56339971	      5.62752060	      0.00000000	     -3.00304014	     -3.65556968	     -2.54341744	     44.33138631	    -15.84079569	     44.33138631	     75.15786310	     44.98630351	      0.00000000	      0.00000000	     44.33138631	    -15.84079569	     44.33138631	     75.15786310	     44.98630351	      0.00000000	      0.00000000
      1.03000000	     -2.64271760	      1.44834726	      4.62482946	      0.68076094	      0.93568808	      0.20991698	     27.51366359	     -7.90947337	    -14.79312512	     57.50158086	      1.00359191	     -2.04033951	    -22.94179261	      0.00000000	     -0.36263022	      3.62131789	    -10.75695796	      5.19149945	      0.09060876	      8.92698500	      5.91463853	      0.00000000	     -3.13539492	     -3.11335216	     -2.66697194	     44.33258117	    -15.83831306	     44.33258117	     75.15695194	     44.98652219	      0.00000000	      0.00000000	     44.33258117	    -15.83831306	     44.33258117	     75.15695194	     44.98652219	      0.00000000	      0.00000000
      1.03500000	     -2.74270141	      1.67048936	      4.88023909	      0.68686014	      0.93507091	      0.20960069	     28.07193865	     -8.10566851	    -14.72276980	     56.34220473	      0.98335698	     -1.83283062	    -22.85421594	      0.00000000	     -0.70714112	      3.85801041	    -10.67097211	      5.15911275	      0.09004350	      9.16934559	      5.99926398	      0.00000000	     -3.09453455	     -3.29503156	     -2.60548404	     44.33271256	    -15.83804030	     44.33271256	     75.15685202	     44.98654602	      0.00000000	      0.00000000	     44.33271256	    -15.83804030	     44.33271256	     75.15685202	     44.98654602	      0.00000000	      0.00000000
      1.04000000	     -2.85502288	      1.81745978	      5.13896055	      0.69294523	      0.93442400	      0.20925203	     28.58349476	     -8.18798830	    -14.59755073	     55.05772064	      0.96093850	     -1.54775644	    -22.71141816	      0.00000000	     -1.05092324	      4.01640861	    -10.47598686	      5.09753592	      0.08896879	      9.45462485	      6.14282240	      0.00000000	     -3.03398498	     -3.40983031	     -2.56602368	     44.33286344	    -15.83772714	     44.33286344	     75.15673734	     44.98657335	      0.00000000	      0.00000000	     44.33286344	    -15.83772714	     44.33286344	     75.15673734	     44.98657335	      0.00000000	      0.00000000
      1.04500000	     -2.45600780	      1.19613378	      5.55929001	      0.69909158	      0.93492660	      0.20836621	     28.15641315	     -7.39502471	    -14.86598884	     53.01799670	      0.92533861	     -1.39582475	    -22.68452897	      0.00000000	     -2.00077066	      3.31972651	     -9.80507628	      4.79049423	      0.08360990	      9.83447038	      6.26516429	      0.00000000	     -3.54735651	     -2.54135219	     -2.87577457	     44.33472954	    -15.83385649	     44.33472954	     75.15532268	     44.98690773	      0.00000000	      0.00000000	     44.33472954	    -15.83385649	     44.33472954	     75.15532268	     44.98690773	      0.00000000	      0.00000000
      1.05000000	     -2.43349139	      1.14663314	      5.88238340	      0.70524873	      0.93444114	      0.20782136	     28.35982837	     -7.28369561	    -14.87463751	     51.45187263	      0.89800458	     -1.24594072	    -22.66382193	      0.00000000	     -2.51568186	      3.25771573	     -9.43422312	      4.63565326	      0.08090741	     10.10864277	      6.23140324	      0.00000000	     -3.64639809	     -2.43183706	     -3.03788076	     44.33661171	    -15.82995992	     44.33661171	     75.15390512	     44.98723723	      0.00000000	      0.00000000	     44.33661171	    -15.82995992	     44.33661171	     75.15390512	     44.98723723	      0.00000000	      0.00000000
      1.05500000	     -2.58092050	      1.44973345	      6.11627590	      0.71139290	      0.93346177	      0.20748416	     28.87372084	     -7.61069091	    -14.76652364	     50.15897932	      0.87543934	     -1.10288646	    -22.49430504	      0.00000000	     -2.81735104	      3.57482160	     -9.32173235	      4.62722794	      0.08076036	     10.38458702	      6.29414586	      0.00000000	     -3.53164250	     -2.67785007	     -2.96554379	     44.33675422	    -15.82966525	     44.33675422	     75.15379821	     44.98726185	      0.00000000	      0.00000000	     44.33675422	    -15.82966525	     44.33675422	     75.15379821	     44.98726185	      0.00000000	      0.00000000
      1.06000000	     -2.59584275	      1.24190534	      6.44960692	      0.71753637	      0.93290007	      0.20686973	     28.98921531	     -7.29142617	    -14.71205973	     48.33565642	      0.84361635	     -0.93351633	    -22.45785527	      0.00000000	     -3.25631810	      3.33124256	     -8.86488401	      4.53081718	      0.07907768	     10.79852051	      6.32033500	      0.00000000	     -3.57284573	     -2.35525981	     -3.15329681	     44.33776120	    -15.82758382	     44.33776120	     75.15304385	     44.98743482	      0.00000000	      0.00000000	     44.33776120	    -15.82758382	     44.33776120	     75.15304385	     44.98743482	      0.00000000	      0.00000000
